<mxfile host="app.diagrams.net" agent="Mozilla/5.0 (Windows NT 10.0; Win64; x64) AppleWebKit/537.36 (KHTML, like Gecko) Chrome/134.0.0.0 Safari/537.36" version="26.1.0">
  <diagram name="第 1 页" id="JTgnb0a7iC66pnz1lheD">
    <mxGraphModel dx="1430" dy="757" grid="1" gridSize="10" guides="1" tooltips="1" connect="1" arrows="1" fold="1" page="1" pageScale="1" pageWidth="827" pageHeight="1169" math="0" shadow="0">
      <root>
        <mxCell id="0" />
        <mxCell id="1" parent="0" />
        <mxCell id="htdduQUnRTHgk59qiSYo-62" value="" style="rounded=0;whiteSpace=wrap;html=1;dashed=1;dashPattern=8 8;fillColor=#f8cecc;strokeColor=#b85450;" vertex="1" parent="1">
          <mxGeometry x="70" y="210" width="150" height="590" as="geometry" />
        </mxCell>
        <mxCell id="htdduQUnRTHgk59qiSYo-57" value="" style="rounded=0;whiteSpace=wrap;html=1;dashed=1;dashPattern=8 8;fontFamily=Times New Roman;fillColor=#dae8fc;strokeColor=#6c8ebf;" vertex="1" parent="1">
          <mxGeometry x="240" y="210" width="420" height="250" as="geometry" />
        </mxCell>
        <mxCell id="htdduQUnRTHgk59qiSYo-10" value="" style="rounded=0;whiteSpace=wrap;html=1;dashed=1;dashPattern=8 8;fontFamily=Times New Roman;fillColor=#e1d5e7;strokeColor=#9673a6;" vertex="1" parent="1">
          <mxGeometry x="329" y="280" width="271" height="170" as="geometry" />
        </mxCell>
        <mxCell id="htdduQUnRTHgk59qiSYo-2" value="Start" style="rounded=1;whiteSpace=wrap;html=1;fontFamily=Times New Roman;" vertex="1" parent="1">
          <mxGeometry x="120" y="270" width="60" height="30" as="geometry" />
        </mxCell>
        <mxCell id="htdduQUnRTHgk59qiSYo-3" value="&lt;span style=&quot;font-size: 12pt;&quot; lang=&quot;EN-US&quot;&gt;Initialization&lt;/span&gt;" style="rounded=0;whiteSpace=wrap;html=1;fontFamily=Times New Roman;" vertex="1" parent="1">
          <mxGeometry x="105" y="340" width="90" height="30" as="geometry" />
        </mxCell>
        <mxCell id="htdduQUnRTHgk59qiSYo-4" value="" style="rounded=0;whiteSpace=wrap;html=1;fontFamily=Times New Roman;" vertex="1" parent="1">
          <mxGeometry x="105" y="400" width="90" height="30" as="geometry" />
        </mxCell>
        <mxCell id="htdduQUnRTHgk59qiSYo-5" value="GEN&amp;gt;Mgen" style="rhombus;whiteSpace=wrap;html=1;fontFamily=Times New Roman;" vertex="1" parent="1">
          <mxGeometry x="105" y="480" width="90" height="50" as="geometry" />
        </mxCell>
        <mxCell id="htdduQUnRTHgk59qiSYo-6" value="Select" style="rounded=0;whiteSpace=wrap;html=1;fontFamily=Times New Roman;" vertex="1" parent="1">
          <mxGeometry x="442.5" y="228" width="55" height="20" as="geometry" />
        </mxCell>
        <mxCell id="htdduQUnRTHgk59qiSYo-7" value="LA_M" style="rounded=0;whiteSpace=wrap;html=1;fontFamily=Times New Roman;" vertex="1" parent="1">
          <mxGeometry x="360" y="330" width="60" height="30" as="geometry" />
        </mxCell>
        <mxCell id="htdduQUnRTHgk59qiSYo-8" value="AR_M" style="rounded=0;whiteSpace=wrap;html=1;fontFamily=Times New Roman;" vertex="1" parent="1">
          <mxGeometry x="440" y="330" width="60" height="30" as="geometry" />
        </mxCell>
        <mxCell id="htdduQUnRTHgk59qiSYo-9" value="LB_M" style="rounded=0;whiteSpace=wrap;html=1;fontFamily=Times New Roman;" vertex="1" parent="1">
          <mxGeometry x="520" y="330" width="60" height="30" as="geometry" />
        </mxCell>
        <mxCell id="htdduQUnRTHgk59qiSYo-11" value="Mutation" style="text;html=1;align=center;verticalAlign=middle;whiteSpace=wrap;rounded=0;fontFamily=Times New Roman;" vertex="1" parent="1">
          <mxGeometry x="329" y="280" width="60" height="30" as="geometry" />
        </mxCell>
        <mxCell id="htdduQUnRTHgk59qiSYo-13" value="Reassignment of manufacturing units and AGVs" style="rounded=0;whiteSpace=wrap;html=1;fontFamily=Times New Roman;" vertex="1" parent="1">
          <mxGeometry x="360" y="380" width="220" height="40" as="geometry" />
        </mxCell>
        <mxCell id="htdduQUnRTHgk59qiSYo-17" value="" style="endArrow=classic;html=1;rounded=0;entryX=0.139;entryY=-0.011;entryDx=0;entryDy=0;entryPerimeter=0;exitX=0.5;exitY=1;exitDx=0;exitDy=0;fontFamily=Times New Roman;" edge="1" parent="1" source="htdduQUnRTHgk59qiSYo-7" target="htdduQUnRTHgk59qiSYo-13">
          <mxGeometry width="50" height="50" relative="1" as="geometry">
            <mxPoint x="410" y="390" as="sourcePoint" />
            <mxPoint x="460" y="340" as="targetPoint" />
            <Array as="points">
              <mxPoint x="390" y="370" />
            </Array>
          </mxGeometry>
        </mxCell>
        <mxCell id="htdduQUnRTHgk59qiSYo-18" value="" style="endArrow=classic;html=1;rounded=0;entryX=0.862;entryY=-0.006;entryDx=0;entryDy=0;entryPerimeter=0;exitX=0.504;exitY=1.035;exitDx=0;exitDy=0;exitPerimeter=0;fontFamily=Times New Roman;" edge="1" parent="1" target="htdduQUnRTHgk59qiSYo-13">
          <mxGeometry width="50" height="50" relative="1" as="geometry">
            <mxPoint x="549.83" y="360" as="sourcePoint" />
            <mxPoint x="549.83" y="377" as="targetPoint" />
          </mxGeometry>
        </mxCell>
        <mxCell id="htdduQUnRTHgk59qiSYo-19" value="" style="endArrow=classic;html=1;rounded=0;entryX=0.5;entryY=0;entryDx=0;entryDy=0;exitX=0.504;exitY=1.035;exitDx=0;exitDy=0;exitPerimeter=0;fontFamily=Times New Roman;" edge="1" parent="1" target="htdduQUnRTHgk59qiSYo-13">
          <mxGeometry width="50" height="50" relative="1" as="geometry">
            <mxPoint x="469.83" y="360" as="sourcePoint" />
            <mxPoint x="469.83" y="377" as="targetPoint" />
          </mxGeometry>
        </mxCell>
        <mxCell id="htdduQUnRTHgk59qiSYo-20" value="" style="endArrow=none;html=1;rounded=0;exitX=0.5;exitY=1;exitDx=0;exitDy=0;entryX=0.518;entryY=-0.003;entryDx=0;entryDy=0;entryPerimeter=0;startFill=0;fontFamily=Times New Roman;" edge="1" parent="1" source="htdduQUnRTHgk59qiSYo-6" target="htdduQUnRTHgk59qiSYo-10">
          <mxGeometry width="50" height="50" relative="1" as="geometry">
            <mxPoint x="570" y="270" as="sourcePoint" />
            <mxPoint x="620" y="220" as="targetPoint" />
          </mxGeometry>
        </mxCell>
        <mxCell id="htdduQUnRTHgk59qiSYo-21" value="P&lt;sub&gt;c&lt;/sub&gt;" style="text;html=1;align=center;verticalAlign=middle;resizable=0;points=[];autosize=1;strokeColor=none;fillColor=none;fontFamily=Times New Roman;fontStyle=2" vertex="1" parent="1">
          <mxGeometry x="465" y="248" width="30" height="30" as="geometry" />
        </mxCell>
        <mxCell id="htdduQUnRTHgk59qiSYo-22" value="" style="rounded=0;whiteSpace=wrap;html=1;dashed=1;dashPattern=8 8;fontFamily=Times New Roman;fillColor=#fff2cc;strokeColor=#d6b656;" vertex="1" parent="1">
          <mxGeometry x="240" y="470" width="420" height="330" as="geometry" />
        </mxCell>
        <mxCell id="htdduQUnRTHgk59qiSYo-23" value="" style="endArrow=classic;html=1;rounded=0;exitX=0.5;exitY=1;exitDx=0;exitDy=0;entryX=0.5;entryY=0;entryDx=0;entryDy=0;fontFamily=Times New Roman;" edge="1" parent="1" source="htdduQUnRTHgk59qiSYo-2" target="htdduQUnRTHgk59qiSYo-3">
          <mxGeometry width="50" height="50" relative="1" as="geometry">
            <mxPoint x="240" y="230" as="sourcePoint" />
            <mxPoint x="290" y="180" as="targetPoint" />
          </mxGeometry>
        </mxCell>
        <mxCell id="htdduQUnRTHgk59qiSYo-24" value="" style="endArrow=classic;html=1;rounded=0;exitX=0.5;exitY=1;exitDx=0;exitDy=0;entryX=0.5;entryY=0;entryDx=0;entryDy=0;fontFamily=Times New Roman;" edge="1" parent="1" source="htdduQUnRTHgk59qiSYo-3" target="htdduQUnRTHgk59qiSYo-4">
          <mxGeometry width="50" height="50" relative="1" as="geometry">
            <mxPoint x="230" y="380" as="sourcePoint" />
            <mxPoint x="230" y="420" as="targetPoint" />
          </mxGeometry>
        </mxCell>
        <mxCell id="htdduQUnRTHgk59qiSYo-25" value="" style="endArrow=classic;html=1;rounded=0;exitX=0.5;exitY=1;exitDx=0;exitDy=0;entryX=0.5;entryY=0;entryDx=0;entryDy=0;fontFamily=Times New Roman;" edge="1" parent="1" source="htdduQUnRTHgk59qiSYo-4" target="htdduQUnRTHgk59qiSYo-5">
          <mxGeometry width="50" height="50" relative="1" as="geometry">
            <mxPoint x="180" y="440" as="sourcePoint" />
            <mxPoint x="180" y="470" as="targetPoint" />
          </mxGeometry>
        </mxCell>
        <mxCell id="htdduQUnRTHgk59qiSYo-26" value="" style="endArrow=classic;html=1;rounded=0;exitX=1;exitY=0.5;exitDx=0;exitDy=0;entryX=0.5;entryY=0;entryDx=0;entryDy=0;fontFamily=Times New Roman;" edge="1" parent="1" source="htdduQUnRTHgk59qiSYo-5" target="htdduQUnRTHgk59qiSYo-6">
          <mxGeometry width="50" height="50" relative="1" as="geometry">
            <mxPoint x="132.5" y="507.5" as="sourcePoint" />
            <mxPoint x="422.5" y="222.5" as="targetPoint" />
            <Array as="points">
              <mxPoint x="230" y="505" />
              <mxPoint x="230" y="200" />
              <mxPoint x="470" y="200" />
            </Array>
          </mxGeometry>
        </mxCell>
        <mxCell id="htdduQUnRTHgk59qiSYo-43" value="No" style="edgeLabel;html=1;align=center;verticalAlign=middle;resizable=0;points=[];fontFamily=Times New Roman;" vertex="1" connectable="0" parent="htdduQUnRTHgk59qiSYo-26">
          <mxGeometry x="-0.9316" relative="1" as="geometry">
            <mxPoint x="-6" as="offset" />
          </mxGeometry>
        </mxCell>
        <mxCell id="htdduQUnRTHgk59qiSYo-27" value="&lt;font&gt;VND obtain neighborhood solutions&lt;/font&gt;" style="rounded=0;whiteSpace=wrap;html=1;fontFamily=Times New Roman;" vertex="1" parent="1">
          <mxGeometry x="410" y="480" width="120" height="40" as="geometry" />
        </mxCell>
        <mxCell id="htdduQUnRTHgk59qiSYo-28" value="Neighborhood solutions outperform optimal solutions" style="rhombus;whiteSpace=wrap;html=1;fontFamily=Times New Roman;" vertex="1" parent="1">
          <mxGeometry x="410" y="545" width="120" height="65" as="geometry" />
        </mxCell>
        <mxCell id="htdduQUnRTHgk59qiSYo-29" value="Search for the next neighborhood" style="rounded=0;whiteSpace=wrap;html=1;fontFamily=Times New Roman;" vertex="1" parent="1">
          <mxGeometry x="260" y="557.5" width="115" height="40" as="geometry" />
        </mxCell>
        <mxCell id="htdduQUnRTHgk59qiSYo-30" value="Return to the first neighborhood solution and start searching" style="rounded=0;whiteSpace=wrap;html=1;fontFamily=Times New Roman;" vertex="1" parent="1">
          <mxGeometry x="411" y="640" width="118" height="50" as="geometry" />
        </mxCell>
        <mxCell id="htdduQUnRTHgk59qiSYo-31" value="The last neighborhood？" style="rhombus;whiteSpace=wrap;html=1;fontFamily=Times New Roman;" vertex="1" parent="1">
          <mxGeometry x="410.63" y="730" width="118.75" height="60" as="geometry" />
        </mxCell>
        <mxCell id="htdduQUnRTHgk59qiSYo-32" value="" style="endArrow=classic;html=1;rounded=0;exitX=0.5;exitY=1;exitDx=0;exitDy=0;entryX=0.5;entryY=0;entryDx=0;entryDy=0;fontFamily=Times New Roman;" edge="1" parent="1" source="htdduQUnRTHgk59qiSYo-13" target="htdduQUnRTHgk59qiSYo-27">
          <mxGeometry width="50" height="50" relative="1" as="geometry">
            <mxPoint x="590" y="530" as="sourcePoint" />
            <mxPoint x="640" y="480" as="targetPoint" />
          </mxGeometry>
        </mxCell>
        <mxCell id="htdduQUnRTHgk59qiSYo-33" value="" style="endArrow=classic;html=1;rounded=0;exitX=0.5;exitY=1;exitDx=0;exitDy=0;entryX=0.5;entryY=0;entryDx=0;entryDy=0;fontFamily=Times New Roman;" edge="1" parent="1" source="htdduQUnRTHgk59qiSYo-27" target="htdduQUnRTHgk59qiSYo-28">
          <mxGeometry width="50" height="50" relative="1" as="geometry">
            <mxPoint x="560" y="530" as="sourcePoint" />
            <mxPoint x="564" y="590" as="targetPoint" />
          </mxGeometry>
        </mxCell>
        <mxCell id="htdduQUnRTHgk59qiSYo-34" value="" style="endArrow=classic;html=1;rounded=0;exitX=0.5;exitY=1;exitDx=0;exitDy=0;entryX=0.5;entryY=0;entryDx=0;entryDy=0;fontFamily=Times New Roman;" edge="1" parent="1" source="htdduQUnRTHgk59qiSYo-28" target="htdduQUnRTHgk59qiSYo-30">
          <mxGeometry width="50" height="50" relative="1" as="geometry">
            <mxPoint x="590" y="620" as="sourcePoint" />
            <mxPoint x="594" y="680" as="targetPoint" />
          </mxGeometry>
        </mxCell>
        <mxCell id="htdduQUnRTHgk59qiSYo-38" value="Yes" style="edgeLabel;html=1;align=center;verticalAlign=middle;resizable=0;points=[];fontFamily=Times New Roman;" vertex="1" connectable="0" parent="htdduQUnRTHgk59qiSYo-34">
          <mxGeometry x="-0.1489" relative="1" as="geometry">
            <mxPoint as="offset" />
          </mxGeometry>
        </mxCell>
        <mxCell id="htdduQUnRTHgk59qiSYo-35" value="" style="endArrow=classic;html=1;rounded=0;exitX=0.5;exitY=1;exitDx=0;exitDy=0;entryX=0.5;entryY=0;entryDx=0;entryDy=0;fontFamily=Times New Roman;" edge="1" parent="1" source="htdduQUnRTHgk59qiSYo-30" target="htdduQUnRTHgk59qiSYo-31">
          <mxGeometry width="50" height="50" relative="1" as="geometry">
            <mxPoint x="590" y="745" as="sourcePoint" />
            <mxPoint x="595" y="775" as="targetPoint" />
          </mxGeometry>
        </mxCell>
        <mxCell id="htdduQUnRTHgk59qiSYo-36" value="" style="endArrow=classic;html=1;rounded=0;exitX=0;exitY=0.5;exitDx=0;exitDy=0;entryX=1;entryY=0.5;entryDx=0;entryDy=0;fontFamily=Times New Roman;" edge="1" parent="1" source="htdduQUnRTHgk59qiSYo-28" target="htdduQUnRTHgk59qiSYo-29">
          <mxGeometry width="50" height="50" relative="1" as="geometry">
            <mxPoint x="496" y="630" as="sourcePoint" />
            <mxPoint x="501" y="660" as="targetPoint" />
          </mxGeometry>
        </mxCell>
        <mxCell id="htdduQUnRTHgk59qiSYo-37" value="No" style="edgeLabel;html=1;align=center;verticalAlign=middle;resizable=0;points=[];fontFamily=Times New Roman;" vertex="1" connectable="0" parent="htdduQUnRTHgk59qiSYo-36">
          <mxGeometry x="-0.1125" y="-1" relative="1" as="geometry">
            <mxPoint as="offset" />
          </mxGeometry>
        </mxCell>
        <mxCell id="htdduQUnRTHgk59qiSYo-39" value="" style="endArrow=classic;html=1;rounded=0;exitX=0.5;exitY=1;exitDx=0;exitDy=0;fontFamily=Times New Roman;" edge="1" parent="1" source="htdduQUnRTHgk59qiSYo-29">
          <mxGeometry width="50" height="50" relative="1" as="geometry">
            <mxPoint x="325" y="610" as="sourcePoint" />
            <mxPoint x="470" y="710" as="targetPoint" />
            <Array as="points">
              <mxPoint x="318" y="710" />
            </Array>
          </mxGeometry>
        </mxCell>
        <mxCell id="htdduQUnRTHgk59qiSYo-40" value="" style="endArrow=classic;html=1;rounded=0;exitX=1;exitY=0.5;exitDx=0;exitDy=0;fontFamily=Times New Roman;" edge="1" parent="1" source="htdduQUnRTHgk59qiSYo-31">
          <mxGeometry width="50" height="50" relative="1" as="geometry">
            <mxPoint x="580" y="720" as="sourcePoint" />
            <mxPoint x="476" y="530" as="targetPoint" />
            <Array as="points">
              <mxPoint x="590" y="760" />
              <mxPoint x="590" y="530" />
            </Array>
          </mxGeometry>
        </mxCell>
        <mxCell id="htdduQUnRTHgk59qiSYo-41" value="Gen += 1" style="rounded=0;whiteSpace=wrap;html=1;fontFamily=Times New Roman;" vertex="1" parent="1">
          <mxGeometry x="428.51" y="870" width="83" height="30" as="geometry" />
        </mxCell>
        <mxCell id="htdduQUnRTHgk59qiSYo-42" value="" style="endArrow=classic;html=1;rounded=0;entryX=0;entryY=0.5;entryDx=0;entryDy=0;exitX=0;exitY=0.5;exitDx=0;exitDy=0;fontFamily=Times New Roman;" edge="1" parent="1" source="htdduQUnRTHgk59qiSYo-41" target="htdduQUnRTHgk59qiSYo-5">
          <mxGeometry width="50" height="50" relative="1" as="geometry">
            <mxPoint x="402.25" y="855" as="sourcePoint" />
            <mxPoint x="82.25" y="510" as="targetPoint" />
            <Array as="points">
              <mxPoint x="50" y="885" />
              <mxPoint x="50" y="505" />
            </Array>
          </mxGeometry>
        </mxCell>
        <mxCell id="htdduQUnRTHgk59qiSYo-44" value="" style="endArrow=classic;html=1;rounded=0;exitX=0.5;exitY=1;exitDx=0;exitDy=0;entryX=0.5;entryY=0;entryDx=0;entryDy=0;fontFamily=Times New Roman;" edge="1" parent="1" source="htdduQUnRTHgk59qiSYo-5" target="htdduQUnRTHgk59qiSYo-45">
          <mxGeometry width="50" height="50" relative="1" as="geometry">
            <mxPoint x="149.90999999999994" y="530" as="sourcePoint" />
            <mxPoint x="149.83" y="564.25" as="targetPoint" />
          </mxGeometry>
        </mxCell>
        <mxCell id="htdduQUnRTHgk59qiSYo-45" value="Out put the best solution" style="rounded=0;whiteSpace=wrap;html=1;fontFamily=Times New Roman;" vertex="1" parent="1">
          <mxGeometry x="100" y="557.5" width="100" height="40" as="geometry" />
        </mxCell>
        <mxCell id="htdduQUnRTHgk59qiSYo-46" value="End" style="rounded=1;whiteSpace=wrap;html=1;fontFamily=Times New Roman;" vertex="1" parent="1">
          <mxGeometry x="115" y="640" width="70" height="30" as="geometry" />
        </mxCell>
        <mxCell id="htdduQUnRTHgk59qiSYo-47" value="" style="endArrow=classic;html=1;rounded=0;exitX=0.5;exitY=1;exitDx=0;exitDy=0;entryX=0.5;entryY=0;entryDx=0;entryDy=0;fontFamily=Times New Roman;" edge="1" parent="1" source="htdduQUnRTHgk59qiSYo-45" target="htdduQUnRTHgk59qiSYo-46">
          <mxGeometry width="50" height="50" relative="1" as="geometry">
            <mxPoint x="225" y="700" as="sourcePoint" />
            <mxPoint x="225" y="755" as="targetPoint" />
          </mxGeometry>
        </mxCell>
        <mxCell id="htdduQUnRTHgk59qiSYo-48" value="" style="endArrow=classic;html=1;rounded=0;exitX=0.5;exitY=1;exitDx=0;exitDy=0;entryX=0.5;entryY=0;entryDx=0;entryDy=0;fontFamily=Times New Roman;" edge="1" parent="1" source="htdduQUnRTHgk59qiSYo-31" target="htdduQUnRTHgk59qiSYo-50">
          <mxGeometry width="50" height="50" relative="1" as="geometry">
            <mxPoint x="720" y="790" as="sourcePoint" />
            <mxPoint x="724" y="850" as="targetPoint" />
          </mxGeometry>
        </mxCell>
        <mxCell id="htdduQUnRTHgk59qiSYo-50" value="Training DQN" style="rounded=0;whiteSpace=wrap;html=1;fontFamily=Times New Roman;" vertex="1" parent="1">
          <mxGeometry x="412.38" y="810" width="115.25" height="40" as="geometry" />
        </mxCell>
        <mxCell id="htdduQUnRTHgk59qiSYo-51" value="" style="endArrow=classic;html=1;rounded=0;exitX=0.5;exitY=1;exitDx=0;exitDy=0;entryX=0.5;entryY=0;entryDx=0;entryDy=0;fontFamily=Times New Roman;" edge="1" parent="1" source="htdduQUnRTHgk59qiSYo-50" target="htdduQUnRTHgk59qiSYo-41">
          <mxGeometry width="50" height="50" relative="1" as="geometry">
            <mxPoint x="660" y="810" as="sourcePoint" />
            <mxPoint x="476" y="910" as="targetPoint" />
          </mxGeometry>
        </mxCell>
        <mxCell id="htdduQUnRTHgk59qiSYo-52" value="" style="endArrow=classic;html=1;rounded=0;exitX=1;exitY=0.5;exitDx=0;exitDy=0;fontFamily=Times New Roman;entryX=0.96;entryY=0.383;entryDx=0;entryDy=0;entryPerimeter=0;" edge="1" parent="1" source="htdduQUnRTHgk59qiSYo-50" target="htdduQUnRTHgk59qiSYo-21">
          <mxGeometry width="50" height="50" relative="1" as="geometry">
            <mxPoint x="534.75" y="848" as="sourcePoint" />
            <mxPoint x="640" y="248" as="targetPoint" />
            <Array as="points">
              <mxPoint x="680" y="830" />
              <mxPoint x="680" y="260" />
            </Array>
          </mxGeometry>
        </mxCell>
        <mxCell id="htdduQUnRTHgk59qiSYo-63" value="Adaptive adjustment" style="edgeLabel;html=1;align=center;verticalAlign=middle;resizable=0;points=[];fontFamily=Times New Roman;" vertex="1" connectable="0" parent="htdduQUnRTHgk59qiSYo-52">
          <mxGeometry x="0.9234" relative="1" as="geometry">
            <mxPoint x="51" as="offset" />
          </mxGeometry>
        </mxCell>
        <mxCell id="htdduQUnRTHgk59qiSYo-53" value="" style="endArrow=classic;html=1;rounded=0;entryX=0.5;entryY=0;entryDx=0;entryDy=0;fontFamily=Times New Roman;" edge="1" parent="1" target="htdduQUnRTHgk59qiSYo-9">
          <mxGeometry width="50" height="50" relative="1" as="geometry">
            <mxPoint x="470" y="300" as="sourcePoint" />
            <mxPoint x="480" y="390" as="targetPoint" />
          </mxGeometry>
        </mxCell>
        <mxCell id="htdduQUnRTHgk59qiSYo-55" value="" style="endArrow=classic;html=1;rounded=0;entryX=0.5;entryY=0;entryDx=0;entryDy=0;fontFamily=Times New Roman;" edge="1" parent="1" target="htdduQUnRTHgk59qiSYo-7">
          <mxGeometry width="50" height="50" relative="1" as="geometry">
            <mxPoint x="470" y="300" as="sourcePoint" />
            <mxPoint x="570" y="350" as="targetPoint" />
          </mxGeometry>
        </mxCell>
        <mxCell id="htdduQUnRTHgk59qiSYo-56" value="Local search" style="text;html=1;align=center;verticalAlign=middle;whiteSpace=wrap;rounded=0;fontFamily=Times New Roman;" vertex="1" parent="1">
          <mxGeometry x="240" y="470" width="80" height="30" as="geometry" />
        </mxCell>
        <mxCell id="htdduQUnRTHgk59qiSYo-59" value="Global Search" style="text;html=1;align=center;verticalAlign=middle;whiteSpace=wrap;rounded=0;fontFamily=Times New Roman;" vertex="1" parent="1">
          <mxGeometry x="240" y="210" width="80" height="30" as="geometry" />
        </mxCell>
        <mxCell id="htdduQUnRTHgk59qiSYo-60" value="" style="endArrow=classic;html=1;rounded=0;entryX=0.5;entryY=0;entryDx=0;entryDy=0;exitX=0.518;exitY=-0.007;exitDx=0;exitDy=0;exitPerimeter=0;fontFamily=Times New Roman;" edge="1" parent="1" source="htdduQUnRTHgk59qiSYo-10" target="htdduQUnRTHgk59qiSYo-8">
          <mxGeometry width="50" height="50" relative="1" as="geometry">
            <mxPoint x="479.83" y="370" as="sourcePoint" />
            <mxPoint x="480" y="390" as="targetPoint" />
          </mxGeometry>
        </mxCell>
      </root>
    </mxGraphModel>
  </diagram>
</mxfile>
